<?xml version="1.0" standalone="no"?>
<!DOCTYPE svg PUBLIC "-//W3C//DTD SVG 20010904//EN"
 "http://www.w3.org/TR/2001/REC-SVG-20010904/DTD/svg10.dtd">
<svg version="1.0" xmlns="http://www.w3.org/2000/svg"
 width="869.000000pt" height="287.000000pt" viewBox="0 0 869.000000 287.000000"
 preserveAspectRatio="xMidYMid meet">

<g transform="translate(0.000000,287.000000) scale(0.100000,-0.100000)"
fill="#000000" stroke="none">
<path d="M799 2697 c-91 -34 -145 -85 -185 -172 -74 -160 8 -328 188 -386 89
-28 217 -24 293 10 125 56 200 190 174 313 -22 101 -74 175 -154 216 -44 23
-64 27 -165 29 -78 2 -126 -1 -151 -10z"/>
<path d="M6634 2669 c-92 -27 -194 -145 -208 -242 -7 -47 6 -123 28 -166 24
-44 91 -106 142 -132 43 -21 63 -24 159 -24 104 0 114 2 177 33 67 32 106 71
144 142 14 26 19 56 19 120 0 75 -3 90 -28 133 -35 59 -105 111 -178 131 -60
17 -204 20 -255 5z"/>
<path d="M4597 2493 c-4 -3 -7 -507 -7 -1119 l0 -1112 186 -7 c186 -8 311 -4
333 9 6 4 11 34 11 72 0 45 4 64 13 64 7 0 44 -23 82 -50 128 -92 217 -113
449 -108 160 3 162 4 248 40 207 89 352 228 435 419 53 124 66 194 67 374 1
182 -7 224 -66 360 -71 162 -176 281 -320 363 -167 95 -329 127 -519 104 -105
-13 -176 -39 -265 -97 -38 -25 -75 -45 -81 -45 -10 0 -13 83 -15 368 l-3 367
-271 3 c-149 1 -273 -1 -277 -5z m1055 -1051 c150 -66 203 -173 196 -394 -5
-152 -24 -204 -104 -277 -85 -78 -131 -96 -244 -96 -85 0 -101 3 -154 29 -33
16 -83 52 -112 80 -48 47 -53 58 -70 131 -24 103 -23 251 1 326 31 94 111 179
201 214 58 22 224 15 286 -13z"/>
<path d="M774 1899 c-164 -19 -359 -114 -463 -225 -94 -100 -128 -196 -118
-339 7 -118 36 -185 112 -260 85 -83 189 -129 370 -161 243 -44 427 -87 459
-109 42 -28 48 -84 13 -119 -30 -30 -110 -55 -199 -63 -127 -11 -402 38 -517
92 -40 19 -82 35 -92 35 -21 0 -41 -35 -111 -200 -55 -126 -60 -142 -50 -156
21 -33 158 -81 352 -124 144 -31 147 -32 370 -27 205 4 233 6 320 31 151 42
233 87 320 175 50 51 85 96 103 136 41 87 43 90 59 90 9 0 44 -38 79 -85 106
-141 295 -267 484 -322 74 -21 98 -23 315 -23 l235 0 100 34 c149 49 321 149
339 196 7 20 -242 305 -266 305 -5 0 -41 -20 -81 -44 -110 -66 -131 -71 -307
-71 -148 0 -158 1 -213 27 -92 43 -197 161 -197 222 0 8 12 17 28 20 15 3 283
8 596 11 313 2 571 7 575 10 12 12 13 165 2 249 -20 148 -65 254 -165 386 -71
94 -99 118 -216 189 -125 76 -232 111 -370 121 -136 9 -335 -3 -404 -25 -70
-21 -246 -116 -308 -166 -79 -62 -153 -156 -221 -279 -48 -87 -67 -160 -75
-282 -8 -120 -12 -123 -97 -57 -28 21 -76 49 -107 63 -61 27 -240 73 -413 106
-197 37 -220 42 -247 56 -67 34 -76 96 -22 148 50 49 112 60 289 53 124 -5
154 -10 260 -43 177 -55 172 -55 194 -3 107 250 123 294 114 308 -22 35 -286
107 -445 121 -122 11 -285 11 -384 -1z m1908 -406 c90 -41 181 -156 190 -240
l3 -28 -332 -3 c-291 -2 -333 0 -347 14 -24 23 -20 44 23 115 46 76 86 111
167 145 52 22 71 24 154 21 70 -2 108 -9 142 -24z"/>
<path d="M4381 1899 c-68 -12 -199 -73 -286 -134 -37 -25 -73 -44 -80 -41 -8
3 -14 30 -17 75 -2 38 -7 74 -12 78 -9 10 -466 18 -502 9 l-24 -6 0 -805 c0
-462 4 -806 9 -809 5 -3 127 -6 271 -7 208 0 265 2 271 13 5 7 9 207 9 444 l0
430 41 70 c95 158 161 196 371 209 l107 7 6 31 c3 18 5 124 3 237 l-3 205 -55
2 c-30 0 -79 -3 -109 -8z"/>
<path d="M7730 1903 c-122 -9 -276 -63 -387 -136 -90 -59 -133 -106 -180 -197
l-38 -75 0 -126 c0 -123 1 -126 34 -193 49 -95 127 -165 228 -204 77 -30 129
-42 438 -102 191 -37 215 -44 243 -71 30 -28 29 -79 -3 -113 -31 -33 -60 -44
-153 -57 -134 -19 -420 24 -540 82 -111 52 -120 53 -143 16 -11 -18 -26 -55
-35 -84 -8 -29 -33 -88 -55 -132 -58 -118 -58 -117 34 -158 43 -19 144 -50
225 -70 143 -35 154 -36 382 -40 226 -4 239 -3 335 21 144 36 273 104 356 186
36 36 73 83 84 105 79 170 53 378 -62 506 -36 39 -158 105 -239 128 -52 15
-300 70 -393 87 -117 21 -176 42 -204 70 -38 38 -35 70 12 114 52 49 111 65
241 64 127 -1 201 -14 342 -60 59 -18 114 -34 123 -34 29 0 151 290 143 342
-2 19 -18 28 -83 51 -138 48 -226 68 -345 78 -110 8 -265 9 -360 2z"/>
<path d="M6490 1865 c-9 -23 -5 -1594 4 -1602 4 -5 528 -4 532 0 2 2 4 365 4
807 0 641 -2 805 -12 812 -7 4 -127 8 -266 8 l-252 0 -10 -25z"/>
</g>
</svg>
